# xmcd CD database file
#
# Track frame offsets:
#	150
#	6509
#	23770
#	32741
#	44830
#	50047
#	62933
#	79529
#	86592
#	91986
#	108247
#	117459
#	134650
#	138324
#	162774
#
# Disc length: 2370 seconds
#
# Revision: 0
# Processed by: cddbd v1.5.1PL2 Copyright (c) Steve Scherf et al.
# Submitted via: CDex 1.51
#
DISCID=cf09400f
DTITLE=Makkenz - わたしは起爆装置なわたしか
DYEAR=2004
DGENRE=Hip-Hop
TTITLE0=アナログ乳房
TTITLE1=さらばジェニファーグッバイ竹雄
TTITLE2=スズキさんは隠さない
TTITLE3=馬鹿囃子
TTITLE4=生理休暇
TTITLE5=定員オーバー快感攻め
TTITLE6=向日葵又は刀
TTITLE7=裸ならば
TTITLE8=なくぜみ
TTITLE9=辞書箱
TTITLE10=骨髄バンクドナー登録
TTITLE11=バカダン
TTITLE12=あれから母さん
TTITLE13=夕
TTITLE14=教えてが
EXTD=YEAR: 2004
EXTT0=
EXTT1=
EXTT2=
EXTT3=
EXTT4=
EXTT5=
EXTT6=
EXTT7=
EXTT8=
EXTT9=
EXTT10=
EXTT11=
EXTT12=
EXTT13=
EXTT14=
PLAYORDER=
